<svg width="244" height="244" viewBox="0 0 244 244" fill="none" xmlns="http://www.w3.org/2000/svg">
<path d="M234 122C234 183.856 183.856 234 122 234C60.1441 234 10 183.856 10 122C10 60.1441 60.1441 10 122 10C183.856 10 234 60.1441 234 122ZM13.579 122C13.579 181.879 62.1207 230.421 122 230.421C181.879 230.421 230.421 181.879 230.421 122C230.421 62.1207 181.879 13.579 122 13.579C62.1207 13.579 13.579 62.1207 13.579 122Z" fill="#E2A3F2" fill-opacity="0.46"/>
<path d="M156.213 229.113C157.819 234.14 155.051 239.556 149.914 240.764C135.784 244.085 121.148 244.864 106.697 243.036C89.0794 240.809 72.1607 234.762 57.1222 225.319C42.0837 215.876 29.288 203.264 19.6286 188.363C9.96914 173.463 3.67895 156.633 1.19727 139.05C-1.28441 121.467 0.102254 103.554 5.26042 86.5617C10.4186 69.5699 19.2239 53.9089 31.0614 40.6724C42.8989 27.436 57.4833 16.9432 73.7959 9.92697C87.177 4.17157 101.456 0.869232 115.954 0.149893C121.225 -0.111632 125.383 4.32666 125.232 9.60171V9.60171C125.08 14.8767 120.673 18.9838 115.407 19.322C103.694 20.0741 92.1718 22.8265 81.3468 27.4825C67.5894 33.3997 55.2896 42.2488 45.3064 53.4119C35.3231 64.5749 27.8971 77.7827 23.5469 92.1129C19.1967 106.443 18.0273 121.55 20.1202 136.379C22.2132 151.208 27.5181 165.401 35.6644 177.968C43.8107 190.534 54.6021 201.171 67.2849 209.135C79.9677 217.099 94.2362 222.198 109.094 224.077C120.785 225.555 132.618 225.011 144.082 222.492C149.236 221.359 154.608 224.086 156.213 229.113V229.113Z" fill="#E2A3F2"/>
<path d="M141.493 146H124.821L119.99 130.891H95.8345L91.0508 146H74.4736L99.1973 78.0811H117.337L141.493 146ZM116.485 119.145L109.191 96.3159C108.654 94.6108 108.275 92.5742 108.054 90.2061H107.675C107.517 92.1953 107.123 94.1688 106.491 96.1265L99.1025 119.145H116.485ZM186.257 126.013H154.618C155.123 133.054 159.56 136.575 167.927 136.575C173.263 136.575 177.952 135.312 181.994 132.786V143.584C177.51 145.984 171.685 147.184 164.517 147.184C156.686 147.184 150.608 145.021 146.282 140.695C141.956 136.338 139.793 130.275 139.793 122.508C139.793 114.456 142.13 108.078 146.803 103.373C151.476 98.6683 157.223 96.3159 164.043 96.3159C171.116 96.3159 176.579 98.4157 180.431 102.615C184.315 106.815 186.257 112.514 186.257 119.713V126.013ZM172.379 116.824C172.379 109.878 169.569 106.404 163.949 106.404C161.549 106.404 159.465 107.399 157.697 109.388C155.96 111.377 154.902 113.856 154.523 116.824H172.379Z" fill="white"/>
<path d="M107.468 176.668C107.468 177.796 107.285 178.833 106.92 179.778C106.555 180.724 106.05 181.54 105.405 182.228C104.761 182.915 103.993 183.452 103.101 183.839C102.209 184.215 101.243 184.403 100.201 184.403C99.0405 184.403 97.9985 184.161 97.0747 183.678C96.1616 183.194 95.3828 182.501 94.7383 181.599C94.1045 180.686 93.6211 179.574 93.2881 178.264C92.9551 176.953 92.7886 175.476 92.7886 173.833C92.7886 171.824 93.0088 170.003 93.4492 168.37C93.9004 166.727 94.5342 165.325 95.3506 164.165C96.1777 162.994 97.1714 162.091 98.3315 161.458C99.4917 160.824 100.786 160.507 102.215 160.507C103.805 160.507 105.083 160.727 106.05 161.167V163.665C104.857 163.053 103.601 162.747 102.279 162.747C101.248 162.747 100.319 162.978 99.4917 163.439C98.6646 163.901 97.9556 164.557 97.3647 165.405C96.7739 166.243 96.3174 167.258 95.9951 168.451C95.6836 169.643 95.5278 170.97 95.5278 172.431H95.5923C96.6558 170.508 98.4121 169.546 100.861 169.546C101.871 169.546 102.779 169.718 103.584 170.062C104.401 170.406 105.094 170.895 105.663 171.528C106.243 172.151 106.689 172.898 107 173.768C107.312 174.638 107.468 175.605 107.468 176.668ZM104.761 177.007C104.761 176.201 104.659 175.476 104.455 174.832C104.25 174.187 103.955 173.639 103.568 173.188C103.192 172.737 102.725 172.393 102.167 172.157C101.608 171.91 100.974 171.786 100.265 171.786C99.6099 171.786 99.0029 171.91 98.4443 172.157C97.8857 172.404 97.4023 172.742 96.9941 173.172C96.5859 173.591 96.2637 174.085 96.0273 174.654C95.8018 175.213 95.689 175.809 95.689 176.443C95.689 177.238 95.8018 177.984 96.0273 178.683C96.2529 179.37 96.5698 179.972 96.978 180.487C97.3862 181.003 97.8696 181.411 98.4282 181.712C98.9976 182.002 99.626 182.147 100.313 182.147C100.979 182.147 101.586 182.023 102.134 181.776C102.682 181.519 103.149 181.164 103.536 180.713C103.923 180.262 104.224 179.725 104.438 179.102C104.653 178.468 104.761 177.77 104.761 177.007ZM124.73 172.35C124.73 174.284 124.552 175.997 124.198 177.49C123.854 178.983 123.349 180.246 122.683 181.277C122.028 182.297 121.217 183.076 120.25 183.613C119.294 184.14 118.204 184.403 116.979 184.403C115.819 184.403 114.782 184.15 113.869 183.646C112.967 183.13 112.204 182.383 111.581 181.406C110.958 180.428 110.485 179.23 110.163 177.812C109.841 176.384 109.68 174.751 109.68 172.914C109.68 170.895 109.846 169.111 110.179 167.564C110.523 166.018 111.023 164.723 111.678 163.681C112.333 162.628 113.144 161.839 114.111 161.312C115.088 160.775 116.206 160.507 117.463 160.507C122.307 160.507 124.73 164.455 124.73 172.35ZM122.023 172.608C122.023 166.034 120.46 162.747 117.334 162.747C114.036 162.747 112.387 166.093 112.387 172.785C112.387 179.026 114.004 182.147 117.237 182.147C120.427 182.147 122.023 178.967 122.023 172.608ZM132.098 172.479C130.508 172.479 129.24 171.958 128.295 170.916C127.35 169.863 126.877 168.461 126.877 166.71C126.877 164.798 127.377 163.294 128.376 162.199C129.375 161.092 130.723 160.539 132.42 160.539C134.064 160.539 135.337 161.049 136.239 162.07C137.152 163.09 137.609 164.524 137.609 166.372C137.609 168.22 137.098 169.702 136.078 170.819C135.068 171.926 133.741 172.479 132.098 172.479ZM132.323 162.312C131.303 162.312 130.497 162.693 129.906 163.456C129.316 164.208 129.02 165.244 129.02 166.565C129.02 167.865 129.31 168.88 129.89 169.611C130.47 170.331 131.26 170.69 132.259 170.69C133.269 170.69 134.058 170.314 134.628 169.562C135.197 168.811 135.482 167.769 135.482 166.437C135.482 165.137 135.197 164.127 134.628 163.407C134.069 162.677 133.301 162.312 132.323 162.312ZM147.567 160.894L132.742 184.161H130.438L145.246 160.894H147.567ZM145.859 184.354C144.269 184.354 143.001 183.828 142.056 182.775C141.111 181.723 140.638 180.326 140.638 178.586C140.638 176.674 141.143 175.165 142.153 174.058C143.162 172.941 144.505 172.382 146.181 172.382C147.814 172.382 149.087 172.898 150 173.929C150.913 174.96 151.369 176.405 151.369 178.264C151.369 180.101 150.859 181.578 149.839 182.695C148.829 183.801 147.502 184.354 145.859 184.354ZM146.084 174.203C145.053 174.203 144.242 174.579 143.651 175.331C143.071 176.083 142.781 177.125 142.781 178.457C142.781 179.735 143.071 180.74 143.651 181.47C144.231 182.19 145.021 182.55 146.02 182.55C147.03 182.55 147.819 182.174 148.388 181.422C148.958 180.659 149.242 179.617 149.242 178.296C149.242 176.985 148.958 175.976 148.388 175.267C147.83 174.558 147.062 174.203 146.084 174.203Z" fill="white"/>
</svg>
