<svg width="244" height="244" viewBox="0 0 244 244" fill="none" xmlns="http://www.w3.org/2000/svg">
<path d="M234 122C234 183.856 183.856 234 122 234C60.1441 234 10 183.856 10 122C10 60.1441 60.1441 10 122 10C183.856 10 234 60.1441 234 122ZM13.579 122C13.579 181.879 62.1207 230.421 122 230.421C181.879 230.421 230.421 181.879 230.421 122C230.421 62.1207 181.879 13.579 122 13.579C62.1207 13.579 13.579 62.1207 13.579 122Z" fill="#ED5222" fill-opacity="0.52"/>
<path d="M206.973 195.644C210.96 199.101 211.417 205.166 207.659 208.871C195.369 220.99 180.619 230.389 164.365 236.408C145.117 243.535 124.383 245.692 104.08 242.677C83.7782 239.662 64.5647 231.574 48.2186 219.161C31.8726 206.749 18.9223 190.412 10.5668 171.665C2.21131 152.918 -1.27941 132.366 0.417831 111.912C2.11507 91.457 8.9454 71.7613 20.2765 54.6477C31.6076 37.5341 47.0732 23.5559 65.2415 14.0071C80.5841 5.94336 97.4353 1.25851 114.664 0.220713C119.932 -0.0965879 124.137 4.29744 124.042 9.57379V9.57379C123.946 14.8501 119.582 19.0036 114.32 19.3975C100.31 20.4462 86.628 24.356 74.1324 30.9235C58.81 38.9765 45.767 50.7652 36.2108 65.198C26.6547 79.6309 20.8943 96.2414 19.4629 113.492C18.0315 130.742 20.9754 148.075 28.0221 163.886C35.0688 179.696 45.9904 193.473 59.776 203.942C73.5615 214.41 89.7654 221.231 106.887 223.774C124.009 226.316 141.496 224.498 157.729 218.487C170.967 213.585 183.021 206.024 193.168 196.306C196.979 192.656 202.985 192.188 206.973 195.644V195.644Z" fill="#ED5222"/>
<path d="M128.493 146H111.821L106.99 130.891H82.8345L78.0508 146H61.4736L86.1973 78.0811H104.337L128.493 146ZM103.485 119.145L96.1909 96.3159C95.6541 94.6108 95.2752 92.5742 95.0542 90.2061H94.6753C94.5174 92.1953 94.1227 94.1688 93.4912 96.1265L86.1025 119.145H103.485ZM176.525 146H161.605V119.05C161.605 111.535 158.921 107.778 153.554 107.778C150.964 107.778 148.833 108.772 147.159 110.762C145.486 112.751 144.649 115.277 144.649 118.34V146H129.682V97.5H144.649V105.173H144.839C148.407 99.2682 153.601 96.3159 160.421 96.3159C171.157 96.3159 176.525 102.978 176.525 116.303V146Z" fill="white"/>
<path d="M107.274 162.424C106.92 163.037 106.49 163.799 105.985 164.712C105.491 165.625 104.965 166.651 104.406 167.79C103.848 168.929 103.278 170.153 102.698 171.464C102.118 172.774 101.576 174.128 101.071 175.524C100.566 176.921 100.12 178.339 99.7334 179.778C99.3574 181.207 99.0835 182.614 98.9116 184H96.0757C96.269 182.625 96.5645 181.223 96.9619 179.794C97.3701 178.355 97.8267 176.948 98.3315 175.573C98.8472 174.187 99.3896 172.855 99.959 171.577C100.528 170.298 101.082 169.122 101.619 168.048C102.156 166.974 102.645 166.028 103.085 165.212C103.536 164.385 103.896 163.74 104.165 163.278H92.5791V160.894H107.274V162.424ZM124.73 172.35C124.73 174.284 124.552 175.997 124.198 177.49C123.854 178.983 123.349 180.246 122.683 181.277C122.028 182.297 121.217 183.076 120.25 183.613C119.294 184.14 118.204 184.403 116.979 184.403C115.819 184.403 114.782 184.15 113.869 183.646C112.967 183.13 112.204 182.383 111.581 181.406C110.958 180.428 110.485 179.23 110.163 177.812C109.841 176.384 109.68 174.751 109.68 172.914C109.68 170.895 109.846 169.111 110.179 167.564C110.523 166.018 111.023 164.723 111.678 163.681C112.333 162.628 113.144 161.839 114.111 161.312C115.088 160.775 116.206 160.507 117.463 160.507C122.307 160.507 124.73 164.455 124.73 172.35ZM122.023 172.608C122.023 166.034 120.46 162.747 117.334 162.747C114.036 162.747 112.387 166.093 112.387 172.785C112.387 179.026 114.004 182.147 117.237 182.147C120.427 182.147 122.023 178.967 122.023 172.608ZM132.098 172.479C130.508 172.479 129.24 171.958 128.295 170.916C127.35 169.863 126.877 168.461 126.877 166.71C126.877 164.798 127.377 163.294 128.376 162.199C129.375 161.092 130.723 160.539 132.42 160.539C134.064 160.539 135.337 161.049 136.239 162.07C137.152 163.09 137.609 164.524 137.609 166.372C137.609 168.22 137.098 169.702 136.078 170.819C135.068 171.926 133.741 172.479 132.098 172.479ZM132.323 162.312C131.303 162.312 130.497 162.693 129.906 163.456C129.316 164.208 129.02 165.244 129.02 166.565C129.02 167.865 129.31 168.88 129.89 169.611C130.47 170.331 131.26 170.69 132.259 170.69C133.269 170.69 134.058 170.314 134.628 169.562C135.197 168.811 135.482 167.769 135.482 166.437C135.482 165.137 135.197 164.127 134.628 163.407C134.069 162.677 133.301 162.312 132.323 162.312ZM147.567 160.894L132.742 184.161H130.438L145.246 160.894H147.567ZM145.859 184.354C144.269 184.354 143.001 183.828 142.056 182.775C141.111 181.723 140.638 180.326 140.638 178.586C140.638 176.674 141.143 175.165 142.153 174.058C143.162 172.941 144.505 172.382 146.181 172.382C147.814 172.382 149.087 172.898 150 173.929C150.913 174.96 151.369 176.405 151.369 178.264C151.369 180.101 150.859 181.578 149.839 182.695C148.829 183.801 147.502 184.354 145.859 184.354ZM146.084 174.203C145.053 174.203 144.242 174.579 143.651 175.331C143.071 176.083 142.781 177.125 142.781 178.457C142.781 179.735 143.071 180.74 143.651 181.47C144.231 182.19 145.021 182.55 146.02 182.55C147.03 182.55 147.819 182.174 148.388 181.422C148.958 180.659 149.242 179.617 149.242 178.296C149.242 176.985 148.958 175.976 148.388 175.267C147.83 174.558 147.062 174.203 146.084 174.203Z" fill="white"/>
</svg>
