<svg width="1154" height="355" viewBox="0 0 1154 355" fill="none" xmlns="http://www.w3.org/2000/svg">
<path d="M52.3145 184.934V238H17.6172V83.957H71.9727C110.788 83.957 130.195 100.321 130.195 133.049C130.195 148.518 124.609 161.05 113.438 170.646C102.337 180.171 87.4772 184.934 68.8574 184.934H52.3145ZM52.3145 110.598V158.615H65.957C84.4336 158.615 93.6719 150.523 93.6719 134.338C93.6719 118.511 84.4336 110.598 65.957 110.598H52.3145ZM217.852 240.686C195.794 240.686 177.819 233.524 163.926 219.201C150.033 204.807 143.086 186.079 143.086 163.02C143.086 138.671 150.14 118.977 164.248 103.938C178.356 88.8984 197.048 81.3789 220.322 81.3789C242.308 81.3789 260.068 88.5762 273.604 102.971C287.21 117.365 294.014 136.343 294.014 159.904C294.014 184.11 286.96 203.625 272.852 218.449C258.815 233.273 240.482 240.686 217.852 240.686ZM219.355 111.242C207.181 111.242 197.513 115.826 190.352 124.992C183.19 134.087 179.609 146.154 179.609 161.193C179.609 176.447 183.19 188.514 190.352 197.395C197.513 206.275 206.895 210.715 218.496 210.715C230.456 210.715 239.945 206.418 246.963 197.824C253.981 189.159 257.49 177.163 257.49 161.838C257.49 145.868 254.089 133.443 247.285 124.562C240.482 115.682 231.172 111.242 219.355 111.242ZM448.916 238H409.062L385.107 198.361C383.317 195.354 381.598 192.668 379.951 190.305C378.304 187.941 376.621 185.936 374.902 184.289C373.255 182.57 371.501 181.281 369.639 180.422C367.848 179.491 365.879 179.025 363.73 179.025H354.385V238H319.688V83.957H374.688C412.07 83.957 430.762 97.9219 430.762 125.852C430.762 131.223 429.938 136.2 428.291 140.783C426.644 145.295 424.316 149.377 421.309 153.029C418.301 156.682 414.648 159.833 410.352 162.482C406.126 165.132 401.4 167.209 396.172 168.713V169.143C398.464 169.859 400.684 171.04 402.832 172.688C404.98 174.263 407.057 176.125 409.062 178.273C411.068 180.422 412.965 182.749 414.756 185.256C416.618 187.691 418.301 190.09 419.805 192.453L448.916 238ZM354.385 109.953V152.814H369.424C376.872 152.814 382.852 150.666 387.363 146.369C391.947 142.001 394.238 136.594 394.238 130.148C394.238 116.685 386.182 109.953 370.068 109.953H354.385ZM567.08 112.209H523.145V238H488.34V112.209H444.619V83.957H567.08V112.209Z" fill="black"/>
<path d="M617.416 168.076H563.06V205.888H613.011V234.033H563.06V293.867H528.363V139.824H617.416V168.076ZM707.972 296.552C685.915 296.552 667.94 289.391 654.047 275.068C640.153 260.673 633.207 241.946 633.207 218.886C633.207 194.537 640.261 174.843 654.369 159.804C668.477 144.765 687.168 137.246 710.443 137.246C732.429 137.246 750.189 144.443 763.724 158.837C777.331 173.232 784.134 192.21 784.134 215.771C784.134 239.977 777.08 259.492 762.972 274.316C748.936 289.14 730.603 296.552 707.972 296.552ZM709.476 167.109C697.302 167.109 687.634 171.692 680.472 180.859C673.311 189.954 669.73 202.021 669.73 217.06C669.73 232.314 673.311 244.381 680.472 253.261C687.634 262.141 697.015 266.581 708.617 266.581C720.577 266.581 730.065 262.285 737.084 253.691C744.102 245.025 747.611 233.03 747.611 217.705C747.611 201.734 744.209 189.309 737.406 180.429C730.603 171.549 721.293 167.109 709.476 167.109ZM901.547 293.867H809.808V139.824H844.506V265.722H901.547V293.867ZM957.084 293.867H922.386V139.824H957.084V293.867ZM1057.31 296.552C1035.25 296.552 1017.28 289.391 1003.38 275.068C989.489 260.673 982.543 241.946 982.543 218.886C982.543 194.537 989.597 174.843 1003.7 159.804C1017.81 144.765 1036.5 137.246 1059.78 137.246C1081.76 137.246 1099.53 144.443 1113.06 158.837C1126.67 173.232 1133.47 192.21 1133.47 215.771C1133.47 239.977 1126.42 259.492 1112.31 274.316C1098.27 289.14 1079.94 296.552 1057.31 296.552ZM1058.81 167.109C1046.64 167.109 1036.97 171.692 1029.81 180.859C1022.65 189.954 1019.07 202.021 1019.07 217.06C1019.07 232.314 1022.65 244.381 1029.81 253.261C1036.97 262.141 1046.35 266.581 1057.95 266.581C1069.91 266.581 1079.4 262.285 1086.42 253.691C1093.44 245.025 1096.95 233.03 1096.95 217.705C1096.95 201.734 1093.55 189.309 1086.74 180.429C1079.94 171.549 1070.63 167.109 1058.81 167.109Z" fill="black"/>
</svg>
