<svg width="244" height="244" viewBox="0 0 244 244" fill="none" xmlns="http://www.w3.org/2000/svg">
<path d="M234 122C234 183.856 183.856 234 122 234C60.1441 234 10 183.856 10 122C10 60.1441 60.1441 10 122 10C183.856 10 234 60.1441 234 122ZM13.579 122C13.579 181.879 62.1207 230.421 122 230.421C181.879 230.421 230.421 181.879 230.421 122C230.421 62.1207 181.879 13.579 122 13.579C62.1207 13.579 13.579 62.1207 13.579 122Z" fill="#A4C6CB" fill-opacity="0.46"/>
<path d="M227.605 160.618C232.561 162.431 235.144 167.938 232.949 172.737C225.029 190.057 213.142 205.326 198.199 217.277C180.763 231.222 159.834 240.115 137.693 242.987C115.551 245.858 93.0463 242.599 72.6293 233.564C52.2122 224.529 34.666 210.064 21.9021 191.745C9.13815 173.427 1.64594 151.957 0.241579 129.674C-1.16278 107.391 3.57456 85.1502 13.9376 65.3739C24.3006 45.5977 39.8918 29.0444 59.013 17.5173C75.3996 7.6387 93.8401 1.77611 112.832 0.344932C118.094 -0.0516244 122.365 4.2786 122.349 9.5558V9.5558C122.333 14.833 118.032 19.0517 112.776 19.5247C97.2863 20.9189 82.2698 25.8115 68.8795 33.8838C52.7536 43.6053 39.6046 57.5656 30.8649 74.244C22.1251 90.9225 18.1299 109.679 19.3142 128.472C20.4986 147.264 26.8172 165.371 37.5818 180.82C48.3463 196.269 63.144 208.468 80.3629 216.088C97.5817 223.708 116.561 226.457 135.235 224.035C153.908 221.613 171.558 214.113 186.263 202.352C198.474 192.587 208.265 180.194 214.938 166.146C217.202 161.379 222.649 158.806 227.605 160.618V160.618Z" fill="#5DC4D2"/>
<path d="M97.0659 122.603V146H81.7676V78.0811H105.733C122.847 78.0811 131.404 85.2961 131.404 99.7261C131.404 106.546 128.941 112.072 124.016 116.303C119.121 120.503 112.569 122.603 104.36 122.603H97.0659ZM97.0659 89.8271V110.999H103.081C111.228 110.999 115.301 107.431 115.301 100.294C115.301 93.3162 111.228 89.8271 103.081 89.8271H97.0659ZM130.889 144.721V132.596C133.352 134.08 135.799 135.185 138.23 135.912C140.693 136.638 143.014 137.001 145.193 137.001C147.845 137.001 149.929 136.638 151.445 135.912C152.992 135.185 153.765 134.08 153.765 132.596C153.765 131.649 153.418 130.86 152.723 130.228C152.029 129.597 151.129 129.044 150.024 128.57C148.95 128.097 147.766 127.67 146.472 127.292C145.177 126.913 143.93 126.486 142.73 126.013C140.804 125.286 139.099 124.513 137.615 123.692C136.162 122.839 134.931 121.861 133.92 120.755C132.941 119.65 132.184 118.371 131.647 116.919C131.142 115.466 130.889 113.746 130.889 111.756C130.889 109.041 131.473 106.704 132.641 104.747C133.841 102.789 135.42 101.194 137.378 99.9629C139.367 98.6999 141.625 97.7842 144.151 97.2158C146.708 96.6159 149.361 96.3159 152.108 96.3159C154.255 96.3159 156.434 96.4896 158.644 96.8369C160.854 97.1527 163.033 97.6263 165.18 98.2578V109.814C163.285 108.709 161.249 107.888 159.07 107.352C156.923 106.783 154.807 106.499 152.723 106.499C151.745 106.499 150.813 106.594 149.929 106.783C149.076 106.941 148.319 107.194 147.656 107.541C146.993 107.857 146.472 108.283 146.093 108.82C145.714 109.325 145.524 109.909 145.524 110.572C145.524 111.456 145.808 112.214 146.377 112.846C146.945 113.477 147.687 114.03 148.603 114.503C149.519 114.945 150.529 115.356 151.634 115.735C152.771 116.082 153.892 116.445 154.997 116.824C156.986 117.519 158.786 118.277 160.396 119.098C162.007 119.919 163.38 120.882 164.517 121.987C165.685 123.092 166.569 124.387 167.169 125.871C167.801 127.355 168.117 129.123 168.117 131.175C168.117 134.049 167.485 136.512 166.222 138.564C164.991 140.585 163.333 142.243 161.249 143.537C159.196 144.8 156.812 145.716 154.097 146.284C151.413 146.884 148.619 147.184 145.714 147.184C140.377 147.184 135.436 146.363 130.889 144.721Z" fill="white"/>
<path d="M107.274 162.424C106.92 163.037 106.49 163.799 105.985 164.712C105.491 165.625 104.965 166.651 104.406 167.79C103.848 168.929 103.278 170.153 102.698 171.464C102.118 172.774 101.576 174.128 101.071 175.524C100.566 176.921 100.12 178.339 99.7334 179.778C99.3574 181.207 99.0835 182.614 98.9116 184H96.0757C96.269 182.625 96.5645 181.223 96.9619 179.794C97.3701 178.355 97.8267 176.948 98.3315 175.573C98.8472 174.187 99.3896 172.855 99.959 171.577C100.528 170.298 101.082 169.122 101.619 168.048C102.156 166.974 102.645 166.028 103.085 165.212C103.536 164.385 103.896 163.74 104.165 163.278H92.5791V160.894H107.274V162.424ZM123.908 176.942C123.908 178.07 123.714 179.091 123.328 180.004C122.941 180.917 122.388 181.701 121.668 182.356C120.959 183.012 120.1 183.517 119.09 183.871C118.08 184.226 116.958 184.403 115.722 184.403C113.574 184.403 111.979 184.081 110.937 183.436V180.632C112.505 181.642 114.111 182.147 115.755 182.147C116.592 182.147 117.344 182.023 118.01 181.776C118.687 181.529 119.262 181.186 119.734 180.745C120.207 180.305 120.567 179.773 120.814 179.15C121.072 178.527 121.201 177.845 121.201 177.104C121.201 175.6 120.696 174.423 119.686 173.575C118.676 172.715 117.21 172.286 115.287 172.286C114.976 172.286 114.648 172.291 114.304 172.302C113.961 172.312 113.617 172.329 113.273 172.35C112.929 172.361 112.591 172.377 112.258 172.398C111.936 172.42 111.64 172.447 111.372 172.479L112.161 160.894H122.844V163.278H114.449L113.982 170.062C114.326 170.041 114.691 170.024 115.078 170.014C115.464 169.992 115.808 169.981 116.109 169.981C117.334 169.981 118.429 170.143 119.396 170.465C120.363 170.787 121.179 171.249 121.845 171.851C122.522 172.441 123.032 173.172 123.376 174.042C123.731 174.901 123.908 175.868 123.908 176.942ZM132.098 172.479C130.508 172.479 129.24 171.958 128.295 170.916C127.35 169.863 126.877 168.461 126.877 166.71C126.877 164.798 127.377 163.294 128.376 162.199C129.375 161.092 130.723 160.539 132.42 160.539C134.064 160.539 135.337 161.049 136.239 162.07C137.152 163.09 137.609 164.524 137.609 166.372C137.609 168.22 137.098 169.702 136.078 170.819C135.068 171.926 133.741 172.479 132.098 172.479ZM132.323 162.312C131.303 162.312 130.497 162.693 129.906 163.456C129.316 164.208 129.02 165.244 129.02 166.565C129.02 167.865 129.31 168.88 129.89 169.611C130.47 170.331 131.26 170.69 132.259 170.69C133.269 170.69 134.058 170.314 134.628 169.562C135.197 168.811 135.482 167.769 135.482 166.437C135.482 165.137 135.197 164.127 134.628 163.407C134.069 162.677 133.301 162.312 132.323 162.312ZM147.567 160.894L132.742 184.161H130.438L145.246 160.894H147.567ZM145.859 184.354C144.269 184.354 143.001 183.828 142.056 182.775C141.111 181.723 140.638 180.326 140.638 178.586C140.638 176.674 141.143 175.165 142.153 174.058C143.162 172.941 144.505 172.382 146.181 172.382C147.814 172.382 149.087 172.898 150 173.929C150.913 174.96 151.369 176.405 151.369 178.264C151.369 180.101 150.859 181.578 149.839 182.695C148.829 183.801 147.502 184.354 145.859 184.354ZM146.084 174.203C145.053 174.203 144.242 174.579 143.651 175.331C143.071 176.083 142.781 177.125 142.781 178.457C142.781 179.735 143.071 180.74 143.651 181.47C144.231 182.19 145.021 182.55 146.02 182.55C147.03 182.55 147.819 182.174 148.388 181.422C148.958 180.659 149.242 179.617 149.242 178.296C149.242 176.985 148.958 175.976 148.388 175.267C147.83 174.558 147.062 174.203 146.084 174.203Z" fill="white"/>
</svg>
